<?xml version="1.0" encoding="utf-8"?>
<!-- Generator: Adobe Illustrator 26.0.3, SVG Export Plug-In . SVG Version: 6.00 Build 0)  -->
<svg version="1.1" id="_x34_57bf273-24a3-4fd8-a857-e9b918267d6a"
	 xmlns="http://www.w3.org/2000/svg" xmlns:xlink="http://www.w3.org/1999/xlink" x="0px" y="0px" viewBox="0 0 698 698"
	 style="enable-background:new 0 0 698 698;" xml:space="preserve">
<style type="text/css">
	.st0{fill:#EAEAEA;}
	.st1{clip-path:url(#SVGID_00000026875951025473118130000014591257866728998017_);}
	.st2{fill:#2E2E2E;}
	.st3{fill:#F5F5FF;stroke:#2E2E2E;stroke-width:0.5006;stroke-linecap:round;stroke-linejoin:round;stroke-miterlimit:10;}
	.st4{fill:none;stroke:#2E2E2E;stroke-width:0.5006;stroke-linecap:round;stroke-linejoin:round;stroke-miterlimit:10;}
	.st5{fill:#F5F5FF;stroke:#2E2E2E;stroke-width:0.5589;stroke-linecap:round;stroke-linejoin:round;stroke-miterlimit:10;}
	.st6{fill:#F5F5FF;}
	.st7{fill:none;stroke:#2E2E2E;stroke-width:0.4622;stroke-linecap:round;stroke-linejoin:round;stroke-miterlimit:10;}
	.st8{fill:none;stroke:#2E2E2E;stroke-width:0.4178;stroke-linecap:round;stroke-linejoin:round;stroke-miterlimit:10;}
	.st9{fill:#F5F5FF;stroke:#2E2E2E;stroke-width:0.535;stroke-linecap:round;stroke-linejoin:round;stroke-miterlimit:10;}
	.st10{fill:#F5F5FF;stroke:#2E2E2E;stroke-width:0.5156;stroke-linecap:round;stroke-linejoin:round;stroke-miterlimit:10;}
</style>
<ellipse transform="matrix(0.7071 -0.7071 0.7071 0.7071 -146.6213 349.0251)" class="st0" cx="348" cy="351.5" rx="314.8" ry="314.8"/>
<g>
	<defs>
		
			<ellipse id="SVGID_1_" transform="matrix(0.7071 -0.7071 0.7071 0.7071 -146.7724 349.0877)" cx="348" cy="351.7" rx="314.8" ry="314.8"/>
	</defs>
	<clipPath id="SVGID_00000037673719836238020640000011888795652360431292_">
		<use xlink:href="#SVGID_1_"  style="overflow:visible;"/>
	</clipPath>
	<g style="clip-path:url(#SVGID_00000037673719836238020640000011888795652360431292_);">
		<g>
			<g>
				<path class="st2" d="M400,337.9H282.8c-34.5,0-63.8-29.7-69-69.9l-10.7-82.6c-6.5-49.9,26.2-94.9,69-94.9h139.6
					c43.2,0,76,45.7,68.9,96L468.9,269C463.3,308.8,434.1,337.9,400,337.9z"/>
				<g>
					<g>
						<g>
							<g>
								<g>
									<path class="st3" d="M436.4,263.5c-14.3,23-12.9,50.2,3.1,60.9c16,10.6,40.6,0.6,54.9-22.4c14.3-23,12.9-50.2-3.1-60.9
										C475.3,230.4,450.7,240.5,436.4,263.5z"/>
								</g>
							</g>
						</g>
						<path class="st4" d="M479.3,252.1c6.9,2.7,12.2,9.3,13.3,16.7c1.1,7.4-1.9,15.2-7.8,19.9"/>
					</g>
					<g>
						<g>
							<g>
								<g>
									<path class="st3" d="M243.1,263.5c14.3,23,12.9,50.2-3.1,60.9c-16,10.6-40.6,0.6-54.9-22.4c-14.3-23-12.9-50.2,3.1-60.9
										C204.2,230.4,228.8,240.5,243.1,263.5z"/>
								</g>
							</g>
						</g>
						<path class="st4" d="M200.2,252.1c-6.9,2.7-12.2,9.3-13.3,16.7c-1.1,7.4,1.9,15.2,7.8,19.9"/>
					</g>
				</g>
				<g>
					<path class="st5" d="M419.4,541.1c1.4,41.6-31.9,75.9-73.4,75.9c-40.7,0-73.5-33.1-73.5-73.4c0-0.8,0-1.7,0.1-2.5l8.2-109.5
						l2.1-27.7l4.1-54.4H405l6.5,86l4.6,62.6L419.4,541.1z"/>
					<path class="st2" d="M416.2,498c-38.8,2.8-81.5-16.5-110.9-54c-9.9-12.6-17.4-26.2-22.5-40.2l4.1-54.4H405l6.5,86L416.2,498z"
						/>
				</g>
				<g>
					<path class="st3" d="M472.8,300.6c0,31.8-13,62.3-36.1,84.3l-35.1,31.5c-10.7,11.6-25.7,18.3-41.5,18.3h-32.7
						c-15.7,0-30.5-6.5-41.3-17.9L250.3,385c-23.5-22.1-36.7-52.8-36.7-84.9l0.6-9.7l3.2-55.8l2.4-41.3
						c0-68.7,55.3-124.4,123.4-124.4c34.1,0,65,13.9,87.3,36.4c22.4,22.5,36.2,53.6,36.2,88l2.7,47l2.7,46.4L472.8,300.6z"/>
					<path class="st2" d="M469.3,240.3h-3.8c-18.1-26.5-29.7-57.4-33.6-89.3c-1-8.3-6.5-14.3-14-18.3c-15.2-8.1-33.8-5.6-47,5.5
						c-8.7,7.3-19.6,11.9-30.7,11.3c-121.4-6.4-109.4,68-119.2,54.9c-19.9-2.2,28.9-73.9,26.4-54c-3.6,29.8-14,58.8-30.2,84.1
						l2.4-41.3c0-68.7,55.3-124.4,123.4-124.4c34.1,0,65,13.9,87.3,36.4c22.4,22.5,36.2,53.6,36.2,88L469.3,240.3z"/>
					<path class="st2" d="M472.8,300.6l-0.8-13.9c-9.7,12.8-21.5,28.4-29.9,37.6c-12.1,13.3-32.8,14.7-53.5,14.2
						c-5.4-0.1-12.5-2.6-19.7-5.9c-18-8.2-40.3-8.2-58.3,0c-7.1,3.3-14.4,5.8-19.8,5.9c-20.7,0.5-41.4-0.9-53.5-14.2
						c-7.3-8.1-16-21.5-23.3-33.9l-0.6,9.7c0,5.5,0.5,10.9,1.3,16.3c-0.2-0.4-0.5-0.8-0.7-1.2l-0.6,9.7c0,32.1,13.3,62.9,36.7,84.9
						l35.9,31.8c10.7,11.4,25.6,17.9,41.3,17.9h32.7c15.8,0,30.8-6.6,41.5-18.3l35.1-31.5c23-22,36.1-52.5,36.1-84.3l-0.7-12.2
						C472.6,309,472.8,304.9,472.8,300.6z"/>
					<g>
						<path class="st6" d="M321.4,459.2c6.1,0.6,15.1,0.1,21.4,0.2c6.3-0.1,15.1,0.1,21.3-0.2c14.2-1,27.8-7.5,37.5-18
							c0,0,8.4-7.5,8.4-7.5c0,0,8.4-7.4,8.4-7.4s-8.3,7.6-8.3,7.6c0,0-8.4,7.6-8.3,7.5c-9.6,10.6-23.4,17.4-37.7,18.2
							c-6.2,0.3-15.1,0-21.4,0.1C336.5,459.5,327.5,459.9,321.4,459.2L321.4,459.2z"/>
					</g>
					<path class="st6" d="M400.8,363.4c-16.2,16.5-37.9,25.7-59.6,25c-19.7-0.6-39-9.5-53.8-24.2h3.5c5.4-0.1,12.6-3,19.8-6.7
						c18-9.3,40.3-9.3,58.3,0c7.2,3.7,14.3,6.6,19.7,6.7C392.7,364.4,396.8,364.1,400.8,363.4z"/>
					<path class="st2" d="M341.2,380.8c6.8,2.9,10.4,5.7,13,8.6c2.4,2.9,3.6,5.7,3.6,8.6c0,2.9-1.1,5.7-3.5,8.6
						c-2.6,2.9-6.1,5.7-13,8.6c-6.9-2.9-10.5-5.7-13-8.6c-2.4-2.9-3.6-5.7-3.5-8.6c0-2.9,1.1-5.7,3.6-8.6
						C330.8,386.5,334.4,383.6,341.2,380.8z"/>
				</g>
				<g>
					<g>
						<g>
							<path class="st2" d="M370.3,216.6c5.8-3.5,12.1-5.8,18.7-7.6c6.6-1.7,13.7-2.7,21-2.4c7.2,0.2,14.8,1.9,21.4,5.4
								c6.6,3.4,12.1,8.8,15,15.2c-6.7-2.2-12.7-3.4-18.4-3.5c-5.7-0.2-11.2,0.6-16.8,1.6c-11.2,2-22.5,5.9-35.3,7.5
								c-4.7,0.6-9.1-2.8-9.6-7.5C365.7,221.6,367.4,218.3,370.3,216.6z"/>
						</g>
						<g>
							<path class="st2" d="M310.5,232.6c-12.8-1.6-24.1-5.5-35.3-7.5c-5.6-1-11.1-1.7-16.8-1.6c-5.7,0.2-11.8,1.3-18.4,3.5
								c2.9-6.4,8.3-11.8,15-15.2c6.6-3.5,14.1-5.1,21.4-5.4c7.3-0.3,14.3,0.7,21,2.4c6.6,1.8,12.9,4.2,18.7,7.6
								c4.1,2.4,5.4,7.7,3,11.8C317.2,231.5,313.8,233,310.5,232.6z"/>
						</g>
					</g>
					<g>
						<g>
							<g>
								<g>
									<g>
										<g>
											<g>
												<path class="st2" d="M373.7,270.3c2.2-2.7,7-9,9.6-11.2c0,0,1.8-1.7,1.8-1.7c0.7-0.5,2.3-1.7,3-2.2
													c0.7-0.4,2.5-1.5,3.2-1.9c0.8-0.3,2.6-1.3,3.3-1.6c12.6-5.4,27.8-3.7,38.9,4.4c2.7,1.9,5.3,3.8,7.8,5.9
													c0.1,0.1,0.1,0.2,0,0.3c-0.1,0.1-0.2,0.1-0.3,0c-2.8-1.7-5.5-3.5-8.2-5.4c-2.7-1.8-5.5-3.4-8.5-4.5
													c-9.7-3.8-21-3.6-30.5,0.7c0,0-2.2,1-2.2,1l-2.1,1.2c-0.6,0.3-1.4,0.9-2,1.3c0,0-2,1.4-2,1.4c-0.6,0.5-2.2,1.9-2.7,2.4
													c-0.6,0.6-1.9,2-2.5,2.6c0,0-6.4,7.4-6.4,7.4C373.9,270.7,373.5,270.5,373.7,270.3L373.7,270.3z"/>
											</g>
											<path class="st2" d="M395.4,259.6c0.5-6.3,5.9-11,12.2-10.5c6.3,0.5,11,5.9,10.5,12.2c-0.5,6.3-5.9,11-12.2,10.5
												C399.6,271.3,394.9,265.9,395.4,259.6z"/>
											<path class="st4" d="M375.2,270.5c5.5,2.9,11.9,4.3,18.5,4.1"/>
										</g>
									</g>
								</g>
							</g>
							<path class="st4" d="M373.6,256.8c6.3-8.7,16.3-14.7,27-16.2"/>
						</g>
						<g>
							<g>
								<g>
									<g>
										<g>
											<g>
												<path class="st2" d="M318.2,270.5c-2.3-2.6-7.3-8.7-9.8-10.8c0,0-1.8-1.6-1.8-1.6c-0.7-0.5-2.3-1.7-2.9-2.1
													c-0.6-0.4-2.5-1.4-3.1-1.8c0,0-2.2-1-2.2-1c-9.5-4.3-20.8-4.5-30.5-0.7c-6.1,2.2-11.1,6.7-16.6,9.9
													c-0.2,0.1-0.5-0.2-0.3-0.4c2.5-2.1,5.2-4,7.8-5.9c11.1-8.1,26.3-9.9,38.9-4.4c0.7,0.3,2.6,1.3,3.3,1.6
													c1.2,0.7,3.1,1.8,4.2,2.7c0,0,2,1.5,2,1.5c0.6,0.5,2.2,2,2.7,2.5c0.6,0.6,1.9,2.1,2.5,2.7c0,0,6.2,7.6,6.2,7.6
													C318.7,270.5,318.4,270.8,318.2,270.5L318.2,270.5z"/>
											</g>
											<path class="st2" d="M296.8,259.6c-0.5-6.3-5.9-11-12.2-10.5c-6.3,0.5-11,5.9-10.5,12.2c0.5,6.3,5.9,11,12.2,10.5
												C292.6,271.3,297.3,265.9,296.8,259.6z"/>
											<path class="st4" d="M317,270.5c-5.5,2.9-11.9,4.3-18.5,4.1"/>
										</g>
									</g>
								</g>
							</g>
							<path class="st4" d="M318.7,256.8c-6.3-8.7-16.3-14.7-26.9-16.2"/>
						</g>
					</g>
					<g>
						<line class="st7" x1="345.7" y1="312" x2="345.7" y2="256.6"/>
						<path class="st7" d="M326.4,321.5l9.5,4h0c6.1,2.6,12.9,2.6,19,0h0l9.5-4"/>
					</g>
					<g>
						<path class="st8" d="M353.3,365.4c11.6,0.1,23.7-2.1,33.7-8.1"/>
						<path class="st8" d="M331.2,365.9c-11.6,0.1-23.7-2.1-33.7-8.1"/>
						<path class="st8" d="M331.2,365.9c5.2,4,15.1,5,22.1-0.5"/>
					</g>
				</g>
				<g>
					<path class="st2" d="M342.6,338.8c2.6-5.4,7.7-8.6,12.8-10c5.1-1.4,10.3-1.1,15-0.3c9.6,2.2,16.5,6,21.6,8.2l6.1,2.6
						c1.6,0.7,3.2,1.3,6,1.5c5.4,0.4,13.4-2.3,23.6-3.3c-1,11.8-4.6,21.9-13.4,30c-4.4,3.9-10.5,6.6-16.8,7.1
						c-6.2,0.5-12-1-16.7-3.2c-9.5-4.4-15.7-11-20.4-16.2c-2.5-2.8-4.7-5.6-7.3-8.4C350.3,343.9,347.4,341.1,342.6,338.8z"/>
					<path class="st2" d="M342.6,338.8c-4.8,2.3-7.8,5.1-10.4,8c-2.6,2.8-4.9,5.6-7.3,8.4c-4.7,5.3-10.8,11.8-20.4,16.2
						c-4.7,2.1-10.5,3.7-16.7,3.2c-6.2-0.5-12.4-3.2-16.8-7.1c-8.9-8-12.5-18.2-13.4-30c10.2,0.9,18.2,3.7,23.6,3.3
						c2.7-0.1,4.4-0.7,6-1.5l6.1-2.6c5.1-2.1,12-6,21.6-8.2c4.7-0.9,9.8-1.2,15,0.3C334.9,330.2,340.1,333.4,342.6,338.8z"/>
				</g>
			</g>
			<g>
				<g>
					<path class="st2" d="M628.2,832c-56.4,25.5-107.9,33.3-115,17.5c-7.1-15.8,32.8-49.2,89.2-74.6c56.4-25.5,107.9-33.3,115-17.5
						C724.6,773.1,684.6,806.5,628.2,832z"/>
					<path class="st9" d="M603.4,970.5L577,906.4L555.9,855L538,811.6l-39.2-95.2c-20.6-50.1-0.4-105.5,44.1-120.8
						c7.8-2.7,15.7-3.9,23.6-3.8c0.7,0,1.5,0,2.2,0.1c34.5,1.2,67.8,26.8,81.1,65.9l31.7,92.6l14.2,41.5l61.3,179.5"/>
					<path class="st3" d="M716.2,755.4c-10.4-13.2-59.8-4.9-113.7,19.4c-56.5,25.5-96.5,58.9-89.2,74.7c0.1,0.3,0.3,0.6,0.6,0.9
						l-0.6,0.3l-25.2-59c11.3-18,45.7-42.7,90-62.6c44.8-20.2,86.5-29.8,107.2-26L716.2,755.4z"/>
					<path class="st2" d="M685.2,703.1c-20.7-3.8-62.5,5.8-107.2,26c-44.2,19.9-78.7,44.6-90,62.6l-37.1-87.1
						c-24.4-57.3,2-122.7,57.5-142.1c10.5-3.7,21.2-5.5,31.9-5.5c38.1,0,74.5,22.6,93.3,59.1L685.2,703.1z"/>
				</g>
				<g>
					<path class="st2" d="M59.2,832c56.4,25.5,107.9,33.3,115,17.5c7.1-15.8-32.8-49.2-89.2-74.6c-56.4-25.5-107.9-33.3-115-17.5
						C-37.2,773.1,2.8,806.5,59.2,832z"/>
					<path class="st9" d="M84,970.5l26.4-64.1l21.1-51.4l17.8-43.4l39.2-95.2c20.6-50.1,0.4-105.5-44.1-120.8
						c-7.8-2.7-15.7-3.9-23.6-3.8c-0.7,0-1.5,0-2.2,0.1c-34.5,1.2-67.8,26.8-81.1,65.9L5.8,750.6l-14.2,41.5l-61.3,179.5"/>
					<path class="st3" d="M-28.8,755.4c10.4-13.2,59.8-4.9,113.7,19.4c56.5,25.5,96.5,58.9,89.2,74.7c-0.1,0.3-0.3,0.6-0.6,0.9
						l0.6,0.3l25.2-59c-11.3-18-45.7-42.7-90-62.6c-44.8-20.2-86.5-29.8-107.2-26L-28.8,755.4z"/>
					<path class="st2" d="M2.2,703.1c20.7-3.8,62.5,5.8,107.2,26c44.2,19.9,78.7,44.6,90,62.6l37.1-87.1
						c24.4-57.3-2-122.7-57.5-142.1c-10.5-3.7-21.2-5.5-31.9-5.5c-38.1,0-74.5,22.6-93.3,59.1L2.2,703.1z"/>
				</g>
			</g>
			<g>
				<polygon class="st2" points="580.1,973.6 108,973.6 110.5,904.5 112.2,854.5 114.4,793.2 121.4,595.3 122.5,565.8 137.7,560.3 
					226.2,528.4 243.3,522.2 251.8,519.1 273.9,507.2 280.6,507.2 408.3,507.2 411,507.2 435.8,518.6 444.2,521.7 461.3,527.8 
					552.4,560.7 566.4,565.8 567.4,595.4 571.2,706.8 574,792 576.1,853.7 576.1,854 577.9,909.7 				"/>
				<path class="st10" d="M415.4,504.4l18.5,12.8l8.1,2.9c-6,48.1-47.1,85.2-96.8,85.2c-49.5,0-90.5-36.9-96.8-84.7l8.2-3l19.4-14.9
					"/>
				<g>
					<line class="st7" x1="186.3" y1="543.2" x2="186.3" y2="971.6"/>
					<line class="st7" x1="268.5" y1="569" x2="268.5" y2="971.6"/>
					<line class="st7" x1="344.8" y1="606" x2="344.8" y2="971.6"/>
					<line class="st7" x1="426.9" y1="561.8" x2="426.9" y2="971.6"/>
					<line class="st7" x1="503.2" y1="543.2" x2="503.2" y2="971.6"/>
				</g>
			</g>
		</g>
	</g>
</g>
</svg>
